<svg xmlns="http://www.w3.org/2000/svg" enable-background="new 0 0 24 24" viewBox="0 0 24 24" id="list"><path fill="#7bfaf8" d="M4.6,8.4c-0.3,0-0.5-0.1-0.7-0.3c-0.4-0.4-0.4-1,0-1.4l2.8-2.8c0.4-0.4,1-0.4,1.4,0s0.4,1,0,1.4L5.3,8.1
			C5.1,8.3,4.8,8.4,4.6,8.4z" class="colord2cdd3 svgShape"></path><path fill="#7bfaf8" d="M7.4 8.4c-.3 0-.5-.1-.7-.3L3.9 5.3c-.4-.4-.4-1 0-1.4s1-.4 1.4 0l2.8 2.8c.4.4.4 1 0 1.4C7.9 8.3 7.7 8.4 7.4 8.4zM4.6 15.4c-.3 0-.5-.1-.7-.3-.4-.4-.4-1 0-1.4l2.8-2.8c.4-.4 1-.4 1.4 0s.4 1 0 1.4l-2.8 2.8C5.1 15.3 4.8 15.4 4.6 15.4z" class="colord2cdd3 svgShape"></path><path fill="#7bfaf8" d="M7.4 15.4c-.3 0-.5-.1-.7-.3l-2.8-2.8c-.4-.4-.4-1 0-1.4s1-.4 1.4 0l2.8 2.8c.4.4.4 1 0 1.4C7.9 15.3 7.7 15.4 7.4 15.4zM4.6 22.4c-.3 0-.5-.1-.7-.3-.4-.4-.4-1 0-1.4l2.8-2.8c.4-.4 1-.4 1.4 0s.4 1 0 1.4l-2.8 2.8C5.1 22.3 4.8 22.4 4.6 22.4z" class="colord2cdd3 svgShape"></path><path fill="#7bfaf8" d="M7.4 22.4c-.3 0-.5-.1-.7-.3l-2.8-2.8c-.4-.4-.4-1 0-1.4s1-.4 1.4 0l2.8 2.8c.4.4.4 1 0 1.4C7.9 22.3 7.7 22.4 7.4 22.4zM21 7h-8c-.6 0-1-.4-1-1s.4-1 1-1h8c.6 0 1 .4 1 1S21.6 7 21 7zM21 14h-8c-.6 0-1-.4-1-1s.4-1 1-1h8c.6 0 1 .4 1 1S21.6 14 21 14zM21 21h-8c-.6 0-1-.4-1-1s.4-1 1-1h8c.6 0 1 .4 1 1S21.6 21 21 21z" class="colord2cdd3 svgShape"></path><path fill="#265655" d="M3.6,7.4c-0.3,0-0.5-0.1-0.7-0.3c-0.4-0.4-0.4-1,0-1.4l2.8-2.8c0.4-0.4,1-0.4,1.4,0s0.4,1,0,1.4L4.3,7.1
			C4.1,7.3,3.8,7.4,3.6,7.4z" class="color262656 svgShape"></path><path fill="#265655" d="M6.4 7.4c-.3 0-.5-.1-.7-.3L2.9 4.3c-.4-.4-.4-1 0-1.4s1-.4 1.4 0l2.8 2.8c.4.4.4 1 0 1.4C6.9 7.3 6.7 7.4 6.4 7.4zM3.6 14.4c-.3 0-.5-.1-.7-.3-.4-.4-.4-1 0-1.4l2.8-2.8c.4-.4 1-.4 1.4 0s.4 1 0 1.4l-2.8 2.8C4.1 14.3 3.8 14.4 3.6 14.4z" class="color262656 svgShape"></path><path fill="#265655" d="M6.4 14.4c-.3 0-.5-.1-.7-.3l-2.8-2.8c-.4-.4-.4-1 0-1.4s1-.4 1.4 0l2.8 2.8c.4.4.4 1 0 1.4C6.9 14.3 6.7 14.4 6.4 14.4zM3.6 21.4c-.3 0-.5-.1-.7-.3-.4-.4-.4-1 0-1.4l2.8-2.8c.4-.4 1-.4 1.4 0s.4 1 0 1.4l-2.8 2.8C4.1 21.3 3.8 21.4 3.6 21.4z" class="color262656 svgShape"></path><path fill="#265655" d="M6.4 21.4c-.3 0-.5-.1-.7-.3l-2.8-2.8c-.4-.4-.4-1 0-1.4s1-.4 1.4 0l2.8 2.8c.4.4.4 1 0 1.4C6.9 21.3 6.7 21.4 6.4 21.4zM20 6h-8c-.6 0-1-.4-1-1s.4-1 1-1h8c.6 0 1 .4 1 1S20.6 6 20 6zM20 13h-8c-.6 0-1-.4-1-1s.4-1 1-1h8c.6 0 1 .4 1 1S20.6 13 20 13zM20 20h-8c-.6 0-1-.4-1-1s.4-1 1-1h8c.6 0 1 .4 1 1S20.6 20 20 20z" class="color262656 svgShape"></path></svg>